<svg width="174" height="44" viewBox="0 0 174 44" fill="#bf0909" xmlns="http://www.w3.org/2000/svg">
  <path d="M70.0255 16.4292C68.7727 14.7299 66.4433 13.9141 64.4764 13.9141C60.0382 13.9141 56 17.4253 56 22.9778C56 28.5304 60.0265 32.08 64.4764 32.08C66.3974 32.08 68.771 31.2258 70.0255 29.5273V30.0111C70.0255 34.4909 68.0586 36.2286 64.9516 36.2286C63.0983 36.2286 61.321 35.1274 60.5802 33.5324L56.5412 35.2692C58.022 38.4868 61.245 40.5565 64.9542 40.5565C71.0636 40.5565 74.8746 37.0444 74.8746 29.4989V14.3695H70.0305L70.0255 16.4292ZM65.4077 27.5719C62.9656 27.5719 60.9318 25.503 60.9318 22.9879C60.9318 20.4343 62.9656 18.4414 65.4077 18.4414C67.6627 18.4414 69.8835 20.3209 69.8835 22.9879C69.8818 25.6165 67.7738 27.5811 65.4077 27.5719Z" />
  <path d="M87.9856 13.9238C83.063 13.9238 78.6924 17.5493 78.6924 23.026C78.6924 28.4651 83.063 32.0906 87.9856 32.0906C92.9083 32.0906 97.2764 28.4651 97.2764 23.026C97.2764 17.5493 92.9083 13.9238 87.9856 13.9238ZM87.9856 27.5725C85.5819 27.5725 83.6142 25.693 83.6142 23.026C83.6142 20.3306 85.5819 18.442 87.9856 18.442C90.3893 18.442 92.3571 20.3306 92.3571 23.026C92.3571 25.693 90.3902 27.5816 87.9856 27.5725V27.5725Z" />
  <path d="M111.504 13.9328C109.547 13.9328 107.181 14.7111 105.954 16.4479V4.98242H101.11V31.644H105.954V29.4993C107.171 31.2737 109.537 32.0904 111.504 32.0904C115.942 32.0904 119.981 28.5307 119.981 22.9882C119.981 17.4456 115.942 13.9328 111.504 13.9328ZM110.563 27.5722C108.197 27.5722 106.087 25.6168 106.087 22.9882C106.087 20.3304 108.301 18.4417 110.563 18.4417C113.015 18.4417 115.011 20.4347 115.011 22.9882C115.011 25.5034 113.015 27.5814 110.563 27.5722Z" />
  <path d="M126.044 26.0254C124.38 26.0254 122.975 27.2876 122.975 28.986C122.975 30.7229 124.38 31.9759 126.044 31.9892C127.744 31.9892 129.189 30.7262 129.189 28.986C129.189 27.2776 127.744 26.0254 126.044 26.0254Z" />
  <path d="M143.823 13.9238C141.865 13.9238 139.499 14.7405 138.274 16.4774V14.3701H133.43V40.1108H138.274V29.4995C139.49 31.2739 141.856 32.0906 143.823 32.0906C148.26 32.0906 152.299 28.5694 152.299 22.9884C152.299 17.4834 148.27 13.933 143.823 13.9238ZM142.892 27.5725C140.637 27.5725 138.416 25.6538 138.416 23.026C138.416 20.3982 140.526 18.442 142.892 18.442C145.344 18.442 147.339 20.4733 147.339 23.026C147.339 25.5787 145.344 27.5816 142.892 27.5725V27.5725Z" />
  <path d="M173.29 22.7223C173.29 17.4359 169.252 13.9238 164.292 13.9238C159.369 13.9238 155.112 17.4451 155.112 23.026C155.112 28.3508 158.998 32.0906 164.33 32.0906C167.371 32.0906 170.373 30.7992 171.998 28.6169L169.187 25.7689C168.611 26.4044 167.909 26.9131 167.125 27.2628C166.341 27.6125 165.494 27.7955 164.635 27.8002C162.336 27.8002 160.71 26.614 160.188 24.5826H173.188C173.257 23.965 173.292 23.3439 173.29 22.7223ZM160.186 21.441C160.7 19.1052 162.41 18.1099 164.406 18.1099C166.591 18.1099 168.254 19.4096 168.406 21.441H160.186Z" />
  <path d="M20.571 38.2861L20.5877 38.2027C20.5951 38.1708 20.6063 38.14 20.6211 38.1109C20.4827 37.997 20.3136 37.9266 20.1352 37.9088C19.9568 37.891 19.777 37.9265 19.6188 38.0108C19.6434 38.0782 19.6602 38.1482 19.669 38.2194C19.7069 38.4585 19.6742 38.7034 19.5748 38.9242C19.4754 39.145 19.3136 39.332 19.1094 39.4623C19.2069 39.6291 19.3475 39.7667 19.5164 39.8606C19.6854 39.9545 19.8765 40.0014 20.0699 39.9962H20.0782C20.5543 39.9629 20.7881 39.7627 20.9385 39.5291C20.7631 39.3706 20.4457 38.9785 20.571 38.2861Z" />
  <path d="M15.6179 36.8516C15.9519 36.7932 16.1858 36.6597 16.3361 36.4595C16.5022 36.2424 16.5851 35.9732 16.57 35.7004C16.5559 35.4977 16.496 35.3009 16.3946 35.1248C16.518 35.2519 16.6195 35.3985 16.6953 35.5586C16.7599 35.7063 16.7967 35.8647 16.8038 36.0257C16.8372 36.0508 16.8707 36.0674 16.9041 36.0925H16.9124C17.1346 36.2119 17.3916 36.2502 17.639 36.2009C17.8681 36.1538 18.0742 36.0302 18.2237 35.8505C18.2237 35.8494 18.2235 35.8484 18.223 35.8473C18.2226 35.8463 18.222 35.8454 18.2212 35.8446C18.2205 35.8439 18.2195 35.8433 18.2185 35.8428C18.2175 35.8424 18.2164 35.8422 18.2153 35.8422H18.207C18.0721 35.6451 17.9967 35.4135 17.9898 35.1748V35.1581C17.9683 34.9257 18.0117 34.6918 18.1151 34.4824C18.0483 34.4824 17.9815 34.4908 17.923 34.4908C17.346 34.5454 16.7772 34.6658 16.2276 34.8495L16.2192 34.8662L16.2025 34.8578C15.5579 35.0624 14.9343 35.3277 14.34 35.6503C14.3317 35.7649 14.3401 35.8802 14.3651 35.9924C14.4186 36.2304 14.5474 36.4449 14.7324 36.6041C14.9174 36.7634 15.1488 36.8589 15.3924 36.8766L15.4592 36.885C15.5093 36.8766 15.5594 36.8766 15.6012 36.8683L15.6179 36.8516Z" />
  <path d="M23.8528 36.55C23.4686 36.5917 23.1847 36.7336 23.026 36.9504C22.8996 37.1356 22.8273 37.3522 22.8172 37.5761C22.8193 37.8452 22.8732 38.1114 22.9759 38.3603C22.8392 38.1823 22.7346 37.9818 22.6668 37.768C22.6251 37.5761 22.4831 37.2091 22.8506 36.7169C22.9381 36.5926 23.0497 36.4872 23.1789 36.4069C23.308 36.3267 23.452 36.2732 23.6023 36.2497C23.5373 36.0214 23.4026 35.8191 23.2169 35.671C23.0312 35.523 22.8039 35.4365 22.5666 35.4238C22.6217 35.691 22.5999 35.9684 22.5038 36.2237C22.4078 36.4791 22.2413 36.7021 22.0237 36.867C21.8125 37.0148 21.5631 37.0987 21.3055 37.1089C20.9962 37.1238 20.6916 37.0293 20.4452 36.842C20.3286 36.7501 20.2322 36.6354 20.1618 36.5048C20.0914 36.3742 20.0486 36.2306 20.036 36.0829C19.8832 36.2203 19.6953 36.3128 19.4931 36.3498C19.3348 36.3665 19.1753 36.3665 19.017 36.3498C18.8189 36.3068 18.6315 36.2246 18.4658 36.1079C18.2721 36.3355 18.0073 36.4912 17.7141 36.55C17.6457 36.5666 17.5756 36.575 17.5053 36.575C17.2493 36.5916 16.994 36.5337 16.7703 36.4082C16.7363 36.5036 16.6885 36.5936 16.6283 36.6752C16.4112 36.9671 16.0688 37.1507 15.601 37.2091C15.5926 37.3173 15.5926 37.4261 15.601 37.5344C15.6192 37.6723 15.6657 37.805 15.7376 37.9241C15.8094 38.0432 15.9051 38.1463 16.0187 38.2268C16.1846 38.3458 16.3824 38.4126 16.5866 38.4187H16.6367L16.6618 38.3936H16.6785C16.7121 38.395 16.7457 38.3922 16.7787 38.3853C16.8121 38.377 16.8455 38.377 16.8789 38.3686C16.987 38.3407 17.0909 38.2987 17.1879 38.2435V38.2518C17.0937 38.3125 16.9889 38.355 16.8789 38.377C16.9913 38.3543 17.0987 38.3119 17.1963 38.2518V38.2435C17.2312 38.2205 17.2646 38.1954 17.2965 38.1684V38.1684C17.3763 38.1059 17.4442 38.0296 17.4969 37.9432C17.6313 37.7297 17.6818 37.4742 17.6389 37.2257L17.6473 37.2174C17.639 37.1777 17.6278 37.1387 17.6139 37.1006C17.5819 37.0033 17.5369 36.9107 17.4802 36.8253C17.5766 36.9118 17.6584 37.0132 17.7225 37.1256V37.1256C17.7409 37.1552 17.7576 37.1859 17.7726 37.2174C17.7769 37.1674 17.7769 37.1172 17.7726 37.0672L17.7809 37.0589C17.7862 37.1172 17.7862 37.1758 17.7809 37.2341C17.8514 37.3735 17.8853 37.5286 17.8794 37.6847C17.8736 37.8408 17.8282 37.9929 17.7475 38.1267C17.642 38.2921 17.4952 38.4272 17.3216 38.5188C17.3416 38.6891 17.4051 38.8515 17.506 38.9902C17.6069 39.129 17.7419 39.2396 17.8978 39.3113C18.1651 39.4364 18.566 39.4114 18.875 39.2446L18.9168 39.2195C19.3678 38.9275 19.4346 38.5271 19.4179 38.3102C19.4077 38.0899 19.3357 37.877 19.2102 37.6955C19.0847 37.5141 18.9107 37.3716 18.708 37.2841V37.2758C18.8577 37.2913 19.0024 37.3388 19.1321 37.415C19.2618 37.4913 19.3735 37.5946 19.4597 37.7179C19.6734 37.613 19.911 37.5663 20.1485 37.5824C20.3861 37.5985 20.6152 37.6769 20.8127 37.8097C20.9964 37.5928 21.2888 37.426 21.7314 37.4009C21.8734 37.4009 22.1657 37.4176 22.3829 37.5594C22.2654 37.5304 22.1447 37.5164 22.0237 37.5177C21.1301 37.5511 20.9547 38.1768 20.9213 38.3019C20.8294 38.8274 21.0382 39.1528 21.1635 39.2946L21.2052 39.328C21.3542 39.4572 21.5343 39.5455 21.7278 39.584C21.9213 39.6226 22.1215 39.6101 22.3087 39.5477C22.4958 39.4854 22.6635 39.3754 22.7952 39.2286C22.9268 39.0819 23.0179 38.9033 23.0594 38.7107L23.0928 38.5605L23.2181 38.6439C23.3455 38.7255 23.488 38.7809 23.6372 38.8067C23.7863 38.8324 23.9392 38.8282 24.0867 38.7941C24.3579 38.7325 24.5972 38.5738 24.7593 38.348C24.9214 38.1221 24.9949 37.8448 24.9661 37.5685C24.9373 37.2921 24.8082 37.0358 24.603 36.8482C24.3978 36.6605 24.131 36.5544 23.8528 36.55V38.3686Z" />
</svg>
